PathFileType	4	(x/y/z)	S09_P20_T26
DataRate	CameraRate	NumFrames	NumMarkers	Units	OrigDataRate	OrigDataStartFrame	OrigNumFrames
240	240	7	51	mm	240	247	394
Frame#	Time	Sternum			R.Acromium			L.Acromium			Top.Head			R.ASIS			L.ASIS			R.PSIS			L.PSIS			R.Great.Tro			L.Great.Tro			R.Iliac.Crest			L.Iliac.Crest			V.Sacral			R.Thigh.Upper.Post			R.Thigh.Lower.Ant			R.Thigh.Lower.Post			R.Thigh.Upper.Ant			R.Knee.Lat			R.Knee.Med			R.Shank.Upper.Post			R.Shank.Lower.Ant			R.Shank.Lower.Post			R.Shank.Upper.Ant			R.Ankle.Lat			R.Ankle.Med			R.Heel.Upper			R.Heel.Med			R.Heel.Lat			R.Toe.Lat			R.Toe.Med			R.Toe.Tip			L.Thigh.Upper.Post			L.Thigh.Lower.Ant			L.Thigh.Lower.Post			L.Thigh.Upper.Ant			L.Knee.Lat			L.Knee.Med			L.Shank.Upper.Post			L.Shank.Lower.Ant			L.Shank.Lower.Post			L.Shank.Upper.Ant			L.Ankle.Lat			L.Ankle.Med			L.Heel.Upper			L.Heel.Med			L.Heel.Lat			L.Toe.Lat			L.Toe.Med			L.Toe.Tip			Cervical.Spine			Back			
		X1	Y1	Z1	X2	Y2	Z2	X3	Y3	Z3	X4	Y4	Z4	X5	Y5	Z5	X6	Y6	Z6	X7	Y7	Z7	X8	Y8	Z8	X9	Y9	Z9	X10	Y10	Z10	X11	Y11	Z11	X12	Y12	Z12	X13	Y13	Z13	X14	Y14	Z14	X15	Y15	Z15	X16	Y16	Z16	X17	Y17	Z17	X18	Y18	Z18	X19	Y19	Z19	X20	Y20	Z20	X21	Y21	Z21	X22	Y22	Z22	X23	Y23	Z23	X24	Y24	Z24	X25	Y25	Z25	X26	Y26	Z26	X27	Y27	Z27	X28	Y28	Z28	X29	Y29	Z29	X30	Y30	Z30	X31	Y31	Z31	X32	Y32	Z32	X33	Y33	Z33	X34	Y34	Z34	X35	Y35	Z35	X36	Y36	Z36	X37	Y37	Z37	X38	Y38	Z38	X39	Y39	Z39	X40	Y40	Z40	X41	Y41	Z41	X42	Y42	Z42	X43	Y43	Z43	X44	Y44	Z44	X45	Y45	Z45	X46	Y46	Z46	X47	Y47	Z47	X48	Y48	Z48	X49	Y49	Z49	X50	Y50	Z50	X51	Y51	Z51	

247	1.025	45.619	1170.4	306.3	-87.816	1420.6	453.48	-91.635	1416.1	142.23	-94.05	1725.7	290.17	-20.431	1000.5	414.4	-10.845	1006.4	168.7	-236.49	1031.2	326.23	-227.99	1026.7	237.24	-119.17	921.61	484.01	-75.65	913.87	98.895	-108.49	1082.7	453.84	-116.55	1097.4	130.58	-252.5	995.57	278.4	-173.33	680.39	445.91	-122.5	566.86	409.06	-196.82	593.52	414.44	-107.45	652.19	438.72	-168.58	495.16	395.61	-168.75	492.32	274.18	-315.27	372.77	395.51	-285.45	287.02	380.75	-354.95	308.34	382.2	-252.56	352.19	395.67	-426.01	135.01	356.41	-392.03	135.29	270.58	-495.37	135.43	303.4	-494.44	101.78	274.85	-502.86	105.83	339.25	-358.78	44.088	396.12	-306.19	38.957	292.71	-259.77	43.143	341.03	-65.675	650.61	147.18	40.462	581.3	149.3	-25.719	570.13	168.32	2.6884	658.65	123.62	51.603	504.49	161.7	63.779	524.79	294.39	48.431	364.17	154.45	138.08	300.05	166.03	73.932	291.48	160.95	111.81	372.95	160.31	167.87	109.88	185.19	187.41	115.44	276.74	121.26	57.274	241.65	141.63	41.403	274.63	130.45	29.064	214.75	287.62	84.833	152.89	321.12	112.74	257.81	357.65	146.42	195.08	-175.04	1469.5	308.67	-220.09	1201.9	293.98
248	1.0292	51.394	1169.9	305.53	-82.153	1420	452.91	-85.919	1415.8	141.64	-88.679	1725.4	289.82	-14.556	1000.1	414.02	-4.7132	1006.4	168.33	-230.6	1030.5	325.71	-221.97	1026	236.7	-113.25	920.89	483.52	-68.869	913.7	98.541	-102.72	1082.1	453.43	-110.64	1097.1	130.08	-246.49	994.84	277.84	-166.5	679.45	445.6	-115.25	565.99	409.06	-189.66	592.41	414.2	-100.53	651.43	438.55	-161.42	494.14	395.74	-161.42	491.21	274.37	-309.62	373.58	395.66	-280.92	287.39	380.94	-350.1	309.65	382.25	-247.26	352.13	395.8	-423.66	137.34	356.6	-389.35	137.1	270.81	-492.71	139.01	303.34	-492.28	105.46	274.59	-500.87	109.39	339	-358.32	44.673	395.98	-305.64	38.924	292.81	-259.61	42.974	341.07	-59.02	650.45	147.04	47.21	581.27	149.69	-19.102	570	168.36	9.4687	658.55	123.88	58.131	504.32	162.03	70.253	524.86	294.59	53.789	364.1	154.82	142.74	299.07	166.74	78.543	291.14	161.38	117.23	372.23	160.94	170.11	108.99	185.74	189.36	113.81	277.46	122.37	57.758	241.86	142.39	41.232	274.82	130.97	29.402	214.93	289.22	82.311	153.84	322.98	109.2	258.87	360.16	142.62	196.26	-169.35	1469.1	308.1	-214.29	1201.4	293.34
249	1.0333	57.178	1169.5	304.75	-76.487	1419.5	452.33	-80.181	1415.6	141.05	-83.31	1725	289.47	-8.6783	999.7	413.64	1.421	1006.4	167.97	-224.7	1029.7	325.18	-215.93	1025.4	236.13	-107.29	920.18	483.02	-62.067	913.59	98.169	-96.953	1081.5	453.01	-104.69	1096.8	129.55	-240.46	994.13	277.26	-159.53	678.51	445.31	-107.81	565.13	409.11	-182.32	591.29	413.99	-93.447	650.69	438.42	-154.05	493.11	395.94	-153.84	490.08	274.63	-303.76	374.43	395.83	-276.21	287.82	381.18	-345.04	311.03	382.32	-241.76	352.11	395.99	-421.13	139.77	356.8	-386.46	138.99	271.07	-489.79	142.77	303.27	-489.87	109.35	274.31	-498.67	113.15	338.71	-357.82	45.324	395.82	-305.07	38.895	292.91	-259.45	42.801	341.12	-52.429	650.35	146.86	53.868	581.27	150.03	-12.562	569.91	168.34	16.18	658.5	124.09	64.585	504.19	162.28	76.585	524.91	294.75	59.099	364.07	155.12	147.36	298.16	167.36	83.112	290.86	161.73	122.59	371.58	161.5	172.28	108.16	186.2	191.28	112.28	278.06	123.43	58.29	241.99	143.09	41.131	274.96	131.44	29.784	215.06	290.71	79.803	154.66	324.78	105.71	259.76	362.62	138.81	197.26	-163.65	1468.7	307.52	-208.49	1201	292.69
250	1.0375	62.972	1169.1	303.97	-70.817	1419.1	451.75	-74.421	1415.4	140.44	-77.94	1724.8	289.12	-2.8006	999.37	413.26	7.5535	1006.5	167.63	-218.8	1029	324.63	-209.88	1024.9	235.55	-101.3	919.5	482.5	-55.257	913.57	97.777	-91.184	1081	452.58	-98.72	1096.6	129.01	-234.42	993.46	276.65	-152.42	677.56	445.04	-100.17	564.29	409.23	-174.8	590.16	413.82	-86.213	649.98	438.33	-146.47	492.08	396.22	-146.02	488.92	274.96	-297.69	375.34	396.02	-271.3	288.31	381.49	-339.77	312.48	382.42	-236.06	352.14	396.25	-418.38	142.29	357	-383.35	140.95	271.38	-486.57	146.71	303.2	-487.19	113.45	274	-496.23	117.13	338.39	-357.29	46.048	395.65	-304.45	38.875	293.03	-259.3	42.624	341.17	-45.904	650.31	146.64	60.434	581.32	150.29	-6.1005	569.89	168.27	22.819	658.51	124.24	70.967	504.11	162.46	82.773	524.94	294.86	64.354	364.11	155.34	151.92	297.33	167.87	87.633	290.66	161.99	127.89	371	161.95	174.39	107.39	186.55	193.16	110.87	278.55	124.43	58.856	242.06	143.75	41.097	275.03	131.87	30.2	215.14	292.13	77.323	155.36	326.52	102.28	260.49	365.01	135.01	198.09	-157.94	1468.4	306.93	-202.67	1200.6	292.03
251	1.0417	68.774	1168.8	303.19	-65.146	1418.7	451.15	-68.639	1415.3	139.84	-72.569	1724.5	288.77	3.0731	999.1	412.89	13.68	1006.6	167.29	-212.88	1028.4	324.07	-203.84	1024.4	234.96	-95.287	918.84	481.97	-48.455	913.62	97.364	-85.421	1080.6	452.14	-92.719	1096.5	128.45	-228.36	992.83	276.02	-145.16	676.62	444.8	-92.35	563.46	409.42	-167.1	589.02	413.69	-78.833	649.31	438.3	-138.69	491.07	396.57	-137.94	487.74	275.38	-291.4	376.3	396.24	-266.19	288.88	381.87	-334.29	314	382.56	-230.15	352.22	396.6	-415.42	144.91	357.22	-380.01	142.99	271.72	-483.06	150.84	303.12	-484.24	117.77	273.68	-493.55	121.31	338.04	-356.71	46.85	395.46	-303.8	38.872	293.15	-259.16	42.44	341.22	-39.448	650.33	146.36	66.909	581.42	150.47	0.28439	569.92	168.12	29.384	658.59	124.34	77.277	504.09	162.57	88.819	524.98	294.93	69.548	364.21	155.49	156.42	296.58	168.29	92.095	290.52	162.18	133.12	370.49	162.31	176.42	106.69	186.8	195	109.57	278.93	125.39	59.446	242.07	144.36	41.126	275.05	132.26	30.639	215.16	293.47	74.885	155.93	328.2	98.942	261.07	367.32	131.24	198.76	-152.22	1468.1	306.32	-196.85	1200.3	291.35
252	1.0458	74.583	1168.6	302.41	-59.473	1418.4	450.54	-62.834	1415.2	139.23	-67.195	1724.3	288.42	8.9388	998.88	412.53	19.797	1006.7	166.97	-206.97	1027.7	323.49	-197.8	1024	234.35	-89.244	918.22	481.44	-41.676	913.77	96.929	-79.668	1080.2	451.7	-86.689	1096.4	127.87	-222.29	992.24	275.37	-137.78	675.68	444.61	-84.354	562.67	409.7	-159.23	587.87	413.62	-71.315	648.67	438.33	-130.71	490.06	397	-129.61	486.54	275.87	-284.88	377.32	396.5	-260.87	289.51	382.32	-328.58	315.6	382.72	-224.03	352.36	397.02	-412.22	147.62	357.45	-376.41	145.1	272.11	-479.22	155.16	303.04	-480.98	122.29	273.34	-490.59	125.71	337.68	-356.08	47.737	395.26	-303.1	38.891	293.28	-259.03	42.248	341.28	-33.06	650.42	146.03	73.297	581.57	150.58	6.5945	570.01	167.89	35.875	658.73	124.36	83.519	504.12	162.59	94.732	525.01	294.94	74.67	364.37	155.54	160.84	295.9	168.6	96.488	290.46	162.27	138.28	370.03	162.58	178.38	106.05	186.97	196.79	108.39	279.2	126.3	60.047	242.03	144.94	41.211	275.02	132.64	31.091	215.15	294.74	72.5	156.39	329.81	95.716	261.52	369.57	127.53	199.28	-146.5	1467.9	305.71	-191.03	1200	290.66
253	1.05	80.397	1168.4	301.64	-53.801	1418.1	449.93	-57.006	1415.2	138.62	-61.817	1724.2	288.07	14.793	998.72	412.17	25.9	1006.9	166.65	-201.05	1027.1	322.9	-191.77	1023.7	233.73	-83.178	917.63	480.89	-34.934	914	96.472	-73.932	1079.8	451.24	-80.633	1096.4	127.28	-216.22	991.7	274.71	-130.28	674.76	444.46	-76.19	561.9	410.07	-151.2	586.72	413.6	-63.667	648.07	438.43	-122.53	489.07	397.52	-121.03	485.31	276.46	-278.14	378.39	396.79	-255.33	290.21	382.85	-322.64	317.26	382.93	-217.69	352.55	397.53	-408.78	150.41	357.7	-372.56	147.28	272.56	-475.03	159.64	302.97	-477.4	127.03	272.99	-487.34	130.31	337.29	-355.39	48.716	395.04	-302.35	38.943	293.43	-258.89	42.049	341.34	-26.74	650.57	145.64	79.6	581.78	150.6	12.833	570.16	167.59	42.294	658.93	124.32	89.691	504.2	162.55	100.52	525.06	294.89	79.711	364.59	155.52	165.17	295.29	168.81	100.8	290.47	162.28	143.35	369.64	162.75	180.26	105.46	187.05	198.53	107.33	279.37	127.16	60.65	241.93	145.48	41.348	274.96	132.99	31.549	215.11	295.94	70.18	156.75	331.34	92.62	261.84	371.72	123.9	199.67	-140.77	1467.7	305.09	-185.2	1199.7	289.95
